<?xml version="1.0" encoding="UTF-8"?>
<svg id="Layer_2" data-name="Layer 2" xmlns="http://www.w3.org/2000/svg" viewBox="0 0 167.93 182.22">
  <defs>
    <style>
      .cls-1 {
        fill: #282828;
      }

      .cls-1, .cls-2, .cls-3, .cls-4 {
        stroke-width: 0px;
      }

      .cls-2 {
        fill: #ff0;
      }

      .cls-3 {
        fill: #f0f;
      }

      .cls-4 {
        fill: aqua;
      }
    </style>
  </defs>
  <g id="logo">
    <g>
      <circle class="cls-2" cx="71.58" cy="115.98" r="35.56"/>
      <path class="cls-2" d="M148.03,143.29c5.16-1.96,10.06-4.46,14.58-7.46-13.45,11.79-31.01,18.91-50.26,18.91-.75,0-1.52,0-2.28-.02-7.21-.23-14.17-1.43-20.75-3.53-.98-.3-1.93-.61-2.89-.96-.07-.02-.14-.05-.18-.07-.25-.09-.48-.18-.71-.27-.43-.16-.86-.32-1.3-.5-.14-.05-.3-.11-.43-.16-.75-.3-1.5-.61-2.23-.96-.07-.02-.14-.05-.18-.07-1.34-.59-2.64-1.23-3.94-1.89-17.11-8.81-30.44-23.87-37.02-42.18-.32-.89-.61-1.8-.89-2.71-.16-.48-.32-.96-.46-1.43l-.34-1.23c-.05-.16-.09-.34-.14-.52-.2-.73-.41-1.48-.57-2.25-.05-.14-.07-.27-.09-.41-.05-.11-.07-.23-.09-.34-.3-1.34-.57-2.71-.8-4.1-.59-3.41-.93-6.92-1.05-10.47-.02-.75-.02-1.52-.02-2.28s0-1.52.02-2.28c.98-33.47,23.55-61.57,54.29-70.81-7.99,3.69-15.22,8.74-21.39,14.88-13.67,13.54-22.14,32.31-22.14,53.08,0,4.16.34,8.24,1,12.2,8.17,22.53,23.98,46.13,50.17,58.79,7.44,2.48,15.38,3.82,23.64,3.82,4.21,0,8.35-.34,12.38-1.02,4.85-.8,9.56-2.09,14.04-3.78Z"/>
      <path class="cls-2" d="M112.35,58.56c0-12.2,9.87-22.07,22.07-22.07s22.05,9.87,22.05,22.07-9.87,22.07-22.05,22.07-22.07-9.87-22.07-22.07Z"/>
      <path class="cls-2" d="M156.47,58.56c0,12.2-9.87,22.07-22.05,22.07s-22.07-9.87-22.07-22.07,9.87-22.07,22.07-22.07,22.05,9.87,22.05,22.07Z"/>
      <path class="cls-2" d="M82.98,152.44c.8-.48,1.55-.98,2.28-1.52-5.26,18.09-21.96,31.31-41.75,31.31-.75,0-1.5-.02-2.23-.05-.05-.02-.07-.02-.09,0C19,180.99,1.23,163.22.05,141.04c.02-.02.02-.05,0-.09-.02-.73-.05-1.48-.05-2.23s.02-1.5.05-2.23c.02-.05.02-.07,0-.09,1.18-22.18,18.95-39.95,41.14-41.14.02.02.05.02.09,0h.5s-.05,0-.07.05c-1.75,1.48-3.37,3.14-4.78,4.96-4.82,6.03-7.69,13.67-7.69,21.98,0,19.52,15.81,35.36,35.36,35.36,5.37,0,10.44-1.21,14.99-3.32,1.18-.57,2.3-1.16,3.39-1.84Z"/>
      <path class="cls-2" d="M87.01,138.72c0,.75-.02,1.5-.05,2.23-.05-.75-.11-1.5-.2-2.23.09-.73.16-1.48.2-2.23.02.73.05,1.48.05,2.23Z"/>
      <path class="cls-2" d="M87.01,138.72c0,.75-.02,1.5-.05,2.23-.05-.75-.11-1.5-.2-2.23.09-.73.16-1.48.2-2.23.02.73.05,1.48.05,2.23Z"/>
      <path class="cls-2" d="M156.47,58.56c0,12.2-9.87,22.07-22.05,22.07s-22.07-9.87-22.07-22.07,9.87-22.07,22.07-22.07,22.05,9.87,22.05,22.07Z"/>
      <circle class="cls-2" cx="71.58" cy="115.98" r="35.56"/>
      <path class="cls-2" d="M148.03,143.29c5.16-1.96,10.06-4.46,14.58-7.46-13.45,11.79-31.01,18.91-50.26,18.91-.75,0-1.52,0-2.28-.02-7.21-.23-14.17-1.43-20.75-3.53-.98-.3-1.93-.61-2.89-.96-.07-.02-.14-.05-.18-.07-.25-.09-.48-.18-.71-.27-.43-.16-.86-.32-1.3-.5-.14-.05-.3-.11-.43-.16-.75-.3-1.5-.61-2.23-.96-.07-.02-.14-.05-.18-.07-1.34-.59-2.64-1.23-3.94-1.89-17.11-8.81-30.44-23.87-37.02-42.18-.32-.89-.61-1.8-.89-2.71-.16-.48-.32-.96-.46-1.43l-.34-1.23c-.05-.16-.09-.34-.14-.52-.2-.73-.41-1.48-.57-2.25-.05-.14-.07-.27-.09-.41-.05-.11-.07-.23-.09-.34-.3-1.34-.57-2.71-.8-4.1-.59-3.41-.93-6.92-1.05-10.47-.02-.75-.02-1.52-.02-2.28s0-1.52.02-2.28c.98-33.47,23.55-61.57,54.29-70.81-7.99,3.69-15.22,8.74-21.39,14.88-13.67,13.54-22.14,32.31-22.14,53.08,0,4.16.34,8.24,1,12.2,8.17,22.53,23.98,46.13,50.17,58.79,7.44,2.48,15.38,3.82,23.64,3.82,4.21,0,8.35-.34,12.38-1.02,4.85-.8,9.56-2.09,14.04-3.78Z"/>
      <path class="cls-2" d="M112.35,58.56c0-12.2,9.87-22.07,22.07-22.07s22.05,9.87,22.05,22.07-9.87,22.07-22.05,22.07-22.07-9.87-22.07-22.07Z"/>
      <path class="cls-2" d="M156.47,58.56c0,12.2-9.87,22.07-22.05,22.07s-22.07-9.87-22.07-22.07,9.87-22.07,22.07-22.07,22.05,9.87,22.05,22.07Z"/>
      <path class="cls-2" d="M82.98,152.44c.8-.48,1.55-.98,2.28-1.52-5.26,18.09-21.96,31.31-41.75,31.31-.75,0-1.5-.02-2.23-.05-.05-.02-.07-.02-.09,0C19,180.99,1.23,163.22.05,141.04c.02-.02.02-.05,0-.09-.02-.73-.05-1.48-.05-2.23s.02-1.5.05-2.23c.02-.05.02-.07,0-.09,1.18-22.18,18.95-39.95,41.14-41.14.02.02.05.02.09,0h.5s-.05,0-.07.05c-1.75,1.48-3.37,3.14-4.78,4.96-4.82,6.03-7.69,13.67-7.69,21.98,0,19.52,15.81,35.36,35.36,35.36,5.37,0,10.44-1.21,14.99-3.32,1.18-.57,2.3-1.16,3.39-1.84Z"/>
      <path class="cls-2" d="M87.01,138.72c0,.75-.02,1.5-.05,2.23-.05-.75-.11-1.5-.2-2.23.09-.73.16-1.48.2-2.23.02.73.05,1.48.05,2.23Z"/>
      <path class="cls-2" d="M87.01,138.72c0,.75-.02,1.5-.05,2.23-.05-.75-.11-1.5-.2-2.23.09-.73.16-1.48.2-2.23.02.73.05,1.48.05,2.23Z"/>
      <path class="cls-2" d="M156.47,58.56c0,12.2-9.87,22.07-22.05,22.07s-22.07-9.87-22.07-22.07,9.87-22.07,22.07-22.07,22.05,9.87,22.05,22.07Z"/>
      <circle class="cls-2" cx="71.58" cy="115.98" r="35.56"/>
      <path class="cls-2" d="M148.03,143.29c5.16-1.96,10.06-4.46,14.58-7.46-13.45,11.79-31.01,18.91-50.26,18.91-.75,0-1.52,0-2.28-.02-7.21-.23-14.17-1.43-20.75-3.53-.98-.3-1.93-.61-2.89-.96-.07-.02-.14-.05-.18-.07-.25-.09-.48-.18-.71-.27-.43-.16-.86-.32-1.3-.5-.14-.05-.3-.11-.43-.16-.75-.3-1.5-.61-2.23-.96-.07-.02-.14-.05-.18-.07-1.34-.59-2.64-1.23-3.94-1.89-17.11-8.81-30.44-23.87-37.02-42.18-.32-.89-.61-1.8-.89-2.71-.16-.48-.32-.96-.46-1.43l-.34-1.23c-.05-.16-.09-.34-.14-.52-.2-.73-.41-1.48-.57-2.25-.05-.14-.07-.27-.09-.41-.05-.11-.07-.23-.09-.34-.3-1.34-.57-2.71-.8-4.1-.59-3.41-.93-6.92-1.05-10.47-.02-.75-.02-1.52-.02-2.28s0-1.52.02-2.28c.98-33.47,23.55-61.57,54.29-70.81-7.99,3.69-15.22,8.74-21.39,14.88-13.67,13.54-22.14,32.31-22.14,53.08,0,4.16.34,8.24,1,12.2,8.17,22.53,23.98,46.13,50.17,58.79,7.44,2.48,15.38,3.82,23.64,3.82,4.21,0,8.35-.34,12.38-1.02,4.85-.8,9.56-2.09,14.04-3.78Z"/>
      <path class="cls-2" d="M112.35,58.56c0-12.2,9.87-22.07,22.07-22.07s22.05,9.87,22.05,22.07-9.87,22.07-22.05,22.07-22.07-9.87-22.07-22.07Z"/>
      <path class="cls-2" d="M156.47,58.56c0,12.2-9.87,22.07-22.05,22.07s-22.07-9.87-22.07-22.07,9.87-22.07,22.07-22.07,22.05,9.87,22.05,22.07Z"/>
      <path class="cls-2" d="M82.98,152.44c.8-.48,1.55-.98,2.28-1.52-5.26,18.09-21.96,31.31-41.75,31.31-.75,0-1.5-.02-2.23-.05-.05-.02-.07-.02-.09,0C19,180.99,1.23,163.22.05,141.04c.02-.02.02-.05,0-.09-.02-.73-.05-1.48-.05-2.23s.02-1.5.05-2.23c.02-.05.02-.07,0-.09,1.18-22.18,18.95-39.95,41.14-41.14.02.02.05.02.09,0h.5s-.05,0-.07.05c-1.75,1.48-3.37,3.14-4.78,4.96-4.82,6.03-7.69,13.67-7.69,21.98,0,19.52,15.81,35.36,35.36,35.36,5.37,0,10.44-1.21,14.99-3.32,1.18-.57,2.3-1.16,3.39-1.84Z"/>
      <path class="cls-2" d="M87.01,138.72c0,.75-.02,1.5-.05,2.23-.05-.75-.11-1.5-.2-2.23.09-.73.16-1.48.2-2.23.02.73.05,1.48.05,2.23Z"/>
      <path class="cls-2" d="M87.01,138.72c0,.75-.02,1.5-.05,2.23-.05-.75-.11-1.5-.2-2.23.09-.73.16-1.48.2-2.23.02.73.05,1.48.05,2.23Z"/>
      <path class="cls-2" d="M156.47,58.56c0,12.2-9.87,22.07-22.05,22.07s-22.07-9.87-22.07-22.07,9.87-22.07,22.07-22.07,22.05,9.87,22.05,22.07Z"/>
      <circle class="cls-3" cx="76.9" cy="115.98" r="35.56"/>
      <path class="cls-3" d="M153.35,143.29c5.16-1.96,10.06-4.46,14.58-7.46-13.45,11.79-31.01,18.91-50.26,18.91-.75,0-1.52,0-2.28-.02-7.21-.23-14.17-1.43-20.75-3.53-.98-.3-1.93-.61-2.89-.96-.07-.02-.14-.05-.18-.07-.25-.09-.48-.18-.71-.27-.43-.16-.86-.32-1.3-.5-.14-.05-.3-.11-.43-.16-.75-.3-1.5-.61-2.23-.96-.07-.02-.14-.05-.18-.07-1.34-.59-2.64-1.23-3.94-1.89-17.11-8.81-30.44-23.87-37.02-42.18-.32-.89-.61-1.8-.89-2.71-.16-.48-.32-.96-.46-1.43l-.34-1.23c-.05-.16-.09-.34-.14-.52-.2-.73-.41-1.48-.57-2.25-.05-.14-.07-.27-.09-.41-.05-.11-.07-.23-.09-.34-.3-1.34-.57-2.71-.8-4.1-.59-3.41-.93-6.92-1.05-10.47-.02-.75-.02-1.52-.02-2.28s0-1.52.02-2.28c.98-33.47,23.55-61.57,54.29-70.81-7.99,3.69-15.22,8.74-21.39,14.88-13.67,13.54-22.14,32.31-22.14,53.08,0,4.16.34,8.24,1,12.2,8.17,22.53,23.98,46.13,50.17,58.79,7.44,2.48,15.38,3.82,23.64,3.82,4.21,0,8.35-.34,12.38-1.02,4.85-.8,9.56-2.09,14.04-3.78Z"/>
      <path class="cls-3" d="M117.67,58.56c0-12.2,9.87-22.07,22.07-22.07s22.05,9.87,22.05,22.07-9.87,22.07-22.05,22.07-22.07-9.87-22.07-22.07Z"/>
      <path class="cls-3" d="M161.79,58.56c0,12.2-9.87,22.07-22.05,22.07s-22.07-9.87-22.07-22.07,9.87-22.07,22.07-22.07,22.05,9.87,22.05,22.07Z"/>
      <path class="cls-3" d="M88.3,152.44c.8-.48,1.55-.98,2.28-1.52-5.26,18.09-21.96,31.31-41.75,31.31-.75,0-1.5-.02-2.23-.05-.05-.02-.07-.02-.09,0-22.18-1.18-39.95-18.95-41.14-41.14.02-.02.02-.05,0-.09-.02-.73-.05-1.48-.05-2.23s.02-1.5.05-2.23c.02-.05.02-.07,0-.09,1.18-22.18,18.95-39.95,41.14-41.14.02.02.05.02.09,0h.5s-.05,0-.07.05c-1.75,1.48-3.37,3.14-4.78,4.96-4.82,6.03-7.69,13.67-7.69,21.98,0,19.52,15.81,35.36,35.36,35.36,5.37,0,10.44-1.21,14.99-3.32,1.18-.57,2.3-1.16,3.39-1.84Z"/>
      <path class="cls-3" d="M92.33,138.72c0,.75-.02,1.5-.05,2.23-.05-.75-.11-1.5-.2-2.23.09-.73.16-1.48.2-2.23.02.73.05,1.48.05,2.23Z"/>
      <path class="cls-3" d="M92.33,138.72c0,.75-.02,1.5-.05,2.23-.05-.75-.11-1.5-.2-2.23.09-.73.16-1.48.2-2.23.02.73.05,1.48.05,2.23Z"/>
      <path class="cls-3" d="M161.79,58.56c0,12.2-9.87,22.07-22.05,22.07s-22.07-9.87-22.07-22.07,9.87-22.07,22.07-22.07,22.05,9.87,22.05,22.07Z"/>
      <circle class="cls-3" cx="76.9" cy="115.98" r="35.56"/>
      <path class="cls-3" d="M153.35,143.29c5.16-1.96,10.06-4.46,14.58-7.46-13.45,11.79-31.01,18.91-50.26,18.91-.75,0-1.52,0-2.28-.02-7.21-.23-14.17-1.43-20.75-3.53-.98-.3-1.93-.61-2.89-.96-.07-.02-.14-.05-.18-.07-.25-.09-.48-.18-.71-.27-.43-.16-.86-.32-1.3-.5-.14-.05-.3-.11-.43-.16-.75-.3-1.5-.61-2.23-.96-.07-.02-.14-.05-.18-.07-1.34-.59-2.64-1.23-3.94-1.89-17.11-8.81-30.44-23.87-37.02-42.18-.32-.89-.61-1.8-.89-2.71-.16-.48-.32-.96-.46-1.43l-.34-1.23c-.05-.16-.09-.34-.14-.52-.2-.73-.41-1.48-.57-2.25-.05-.14-.07-.27-.09-.41-.05-.11-.07-.23-.09-.34-.3-1.34-.57-2.71-.8-4.1-.59-3.41-.93-6.92-1.05-10.47-.02-.75-.02-1.52-.02-2.28s0-1.52.02-2.28c.98-33.47,23.55-61.57,54.29-70.81-7.99,3.69-15.22,8.74-21.39,14.88-13.67,13.54-22.14,32.31-22.14,53.08,0,4.16.34,8.24,1,12.2,8.17,22.53,23.98,46.13,50.17,58.79,7.44,2.48,15.38,3.82,23.64,3.82,4.21,0,8.35-.34,12.38-1.02,4.85-.8,9.56-2.09,14.04-3.78Z"/>
      <path class="cls-3" d="M117.67,58.56c0-12.2,9.87-22.07,22.07-22.07s22.05,9.87,22.05,22.07-9.87,22.07-22.05,22.07-22.07-9.87-22.07-22.07Z"/>
      <path class="cls-3" d="M161.79,58.56c0,12.2-9.87,22.07-22.05,22.07s-22.07-9.87-22.07-22.07,9.87-22.07,22.07-22.07,22.05,9.87,22.05,22.07Z"/>
      <path class="cls-3" d="M88.3,152.44c.8-.48,1.55-.98,2.28-1.52-5.26,18.09-21.96,31.31-41.75,31.31-.75,0-1.5-.02-2.23-.05-.05-.02-.07-.02-.09,0-22.18-1.18-39.95-18.95-41.14-41.14.02-.02.02-.05,0-.09-.02-.73-.05-1.48-.05-2.23s.02-1.5.05-2.23c.02-.05.02-.07,0-.09,1.18-22.18,18.95-39.95,41.14-41.14.02.02.05.02.09,0h.5s-.05,0-.07.05c-1.75,1.48-3.37,3.14-4.78,4.96-4.82,6.03-7.69,13.67-7.69,21.98,0,19.52,15.81,35.36,35.36,35.36,5.37,0,10.44-1.21,14.99-3.32,1.18-.57,2.3-1.16,3.39-1.84Z"/>
      <path class="cls-3" d="M92.33,138.72c0,.75-.02,1.5-.05,2.23-.05-.75-.11-1.5-.2-2.23.09-.73.16-1.48.2-2.23.02.73.05,1.48.05,2.23Z"/>
      <path class="cls-3" d="M92.33,138.72c0,.75-.02,1.5-.05,2.23-.05-.75-.11-1.5-.2-2.23.09-.73.16-1.48.2-2.23.02.73.05,1.48.05,2.23Z"/>
      <path class="cls-3" d="M161.79,58.56c0,12.2-9.87,22.07-22.05,22.07s-22.07-9.87-22.07-22.07,9.87-22.07,22.07-22.07,22.05,9.87,22.05,22.07Z"/>
      <circle class="cls-3" cx="76.9" cy="115.98" r="35.56"/>
      <path class="cls-3" d="M153.35,143.29c5.16-1.96,10.06-4.46,14.58-7.46-13.45,11.79-31.01,18.91-50.26,18.91-.75,0-1.52,0-2.28-.02-7.21-.23-14.17-1.43-20.75-3.53-.98-.3-1.93-.61-2.89-.96-.07-.02-.14-.05-.18-.07-.25-.09-.48-.18-.71-.27-.43-.16-.86-.32-1.3-.5-.14-.05-.3-.11-.43-.16-.75-.3-1.5-.61-2.23-.96-.07-.02-.14-.05-.18-.07-1.34-.59-2.64-1.23-3.94-1.89-17.11-8.81-30.44-23.87-37.02-42.18-.32-.89-.61-1.8-.89-2.71-.16-.48-.32-.96-.46-1.43l-.34-1.23c-.05-.16-.09-.34-.14-.52-.2-.73-.41-1.48-.57-2.25-.05-.14-.07-.27-.09-.41-.05-.11-.07-.23-.09-.34-.3-1.34-.57-2.71-.8-4.1-.59-3.41-.93-6.92-1.05-10.47-.02-.75-.02-1.52-.02-2.28s0-1.52.02-2.28c.98-33.47,23.55-61.57,54.29-70.81-7.99,3.69-15.22,8.74-21.39,14.88-13.67,13.54-22.14,32.31-22.14,53.08,0,4.16.34,8.24,1,12.2,8.17,22.53,23.98,46.13,50.17,58.79,7.44,2.48,15.38,3.82,23.64,3.82,4.21,0,8.35-.34,12.38-1.02,4.85-.8,9.56-2.09,14.04-3.78Z"/>
      <path class="cls-3" d="M117.67,58.56c0-12.2,9.87-22.07,22.07-22.07s22.05,9.87,22.05,22.07-9.87,22.07-22.05,22.07-22.07-9.87-22.07-22.07Z"/>
      <path class="cls-3" d="M161.79,58.56c0,12.2-9.87,22.07-22.05,22.07s-22.07-9.87-22.07-22.07,9.87-22.07,22.07-22.07,22.05,9.87,22.05,22.07Z"/>
      <path class="cls-3" d="M88.3,152.44c.8-.48,1.55-.98,2.28-1.52-5.26,18.09-21.96,31.31-41.75,31.31-.75,0-1.5-.02-2.23-.05-.05-.02-.07-.02-.09,0-22.18-1.18-39.95-18.95-41.14-41.14.02-.02.02-.05,0-.09-.02-.73-.05-1.48-.05-2.23s.02-1.5.05-2.23c.02-.05.02-.07,0-.09,1.18-22.18,18.95-39.95,41.14-41.14.02.02.05.02.09,0h.5s-.05,0-.07.05c-1.75,1.48-3.37,3.14-4.78,4.96-4.82,6.03-7.69,13.67-7.69,21.98,0,19.52,15.81,35.36,35.36,35.36,5.37,0,10.44-1.21,14.99-3.32,1.18-.57,2.3-1.16,3.39-1.84Z"/>
      <path class="cls-3" d="M92.33,138.72c0,.75-.02,1.5-.05,2.23-.05-.75-.11-1.5-.2-2.23.09-.73.16-1.48.2-2.23.02.73.05,1.48.05,2.23Z"/>
      <path class="cls-3" d="M92.33,138.72c0,.75-.02,1.5-.05,2.23-.05-.75-.11-1.5-.2-2.23.09-.73.16-1.48.2-2.23.02.73.05,1.48.05,2.23Z"/>
      <path class="cls-3" d="M161.79,58.56c0,12.2-9.87,22.07-22.05,22.07s-22.07-9.87-22.07-22.07,9.87-22.07,22.07-22.07,22.05,9.87,22.05,22.07Z"/>
      <circle class="cls-4" cx="71.58" cy="110.66" r="35.56"/>
      <path class="cls-4" d="M148.03,137.97c5.16-1.96,10.06-4.46,14.58-7.46-13.45,11.79-31.01,18.91-50.26,18.91-.75,0-1.52,0-2.28-.02-7.21-.23-14.17-1.43-20.75-3.53-.98-.3-1.93-.61-2.89-.96-.07-.02-.14-.05-.18-.07-.25-.09-.48-.18-.71-.27-.43-.16-.86-.32-1.3-.5-.14-.05-.3-.11-.43-.16-.75-.3-1.5-.61-2.23-.96-.07-.02-.14-.05-.18-.07-1.34-.59-2.64-1.23-3.94-1.89-17.11-8.81-30.44-23.87-37.02-42.18-.32-.89-.61-1.8-.89-2.71-.16-.48-.32-.96-.46-1.43l-.34-1.23c-.05-.16-.09-.34-.14-.52-.2-.73-.41-1.48-.57-2.25-.05-.14-.07-.27-.09-.41-.05-.11-.07-.23-.09-.34-.3-1.34-.57-2.71-.8-4.1-.59-3.41-.93-6.92-1.05-10.47-.02-.75-.02-1.52-.02-2.28s0-1.52.02-2.28C37.02,37.34,59.59,9.24,90.33,0c-7.99,3.69-15.22,8.74-21.39,14.88-13.67,13.54-22.14,32.31-22.14,53.08,0,4.16.34,8.24,1,12.2,8.17,22.53,23.98,46.13,50.17,58.79,7.44,2.48,15.38,3.82,23.64,3.82,4.21,0,8.35-.34,12.38-1.02,4.85-.8,9.56-2.09,14.04-3.78Z"/>
      <path class="cls-4" d="M112.35,53.24c0-12.2,9.87-22.07,22.07-22.07s22.05,9.87,22.05,22.07-9.87,22.07-22.05,22.07-22.07-9.87-22.07-22.07Z"/>
      <path class="cls-4" d="M156.47,53.24c0,12.2-9.87,22.07-22.05,22.07s-22.07-9.87-22.07-22.07,9.87-22.07,22.07-22.07,22.05,9.87,22.05,22.07Z"/>
      <path class="cls-4" d="M82.98,147.12c.8-.48,1.55-.98,2.28-1.52-5.26,18.09-21.96,31.31-41.75,31.31-.75,0-1.5-.02-2.23-.05-.05-.02-.07-.02-.09,0C19,175.67,1.23,157.9.05,135.72c.02-.02.02-.05,0-.09-.02-.73-.05-1.48-.05-2.23s.02-1.5.05-2.23c.02-.05.02-.07,0-.09,1.18-22.18,18.95-39.95,41.14-41.14.02.02.05.02.09,0h.5s-.05,0-.07.05c-1.75,1.48-3.37,3.14-4.78,4.96-4.82,6.03-7.69,13.67-7.69,21.98,0,19.52,15.81,35.36,35.36,35.36,5.37,0,10.44-1.21,14.99-3.32,1.18-.57,2.3-1.16,3.39-1.84Z"/>
      <path class="cls-4" d="M87.01,133.4c0,.75-.02,1.5-.05,2.23-.05-.75-.11-1.5-.2-2.23.09-.73.16-1.48.2-2.23.02.73.05,1.48.05,2.23Z"/>
      <path class="cls-4" d="M87.01,133.4c0,.75-.02,1.5-.05,2.23-.05-.75-.11-1.5-.2-2.23.09-.73.16-1.48.2-2.23.02.73.05,1.48.05,2.23Z"/>
      <path class="cls-4" d="M156.47,53.24c0,12.2-9.87,22.07-22.05,22.07s-22.07-9.87-22.07-22.07,9.87-22.07,22.07-22.07,22.05,9.87,22.05,22.07Z"/>
      <circle class="cls-4" cx="71.58" cy="110.66" r="35.56"/>
      <path class="cls-4" d="M148.03,137.97c5.16-1.96,10.06-4.46,14.58-7.46-13.45,11.79-31.01,18.91-50.26,18.91-.75,0-1.52,0-2.28-.02-7.21-.23-14.17-1.43-20.75-3.53-.98-.3-1.93-.61-2.89-.96-.07-.02-.14-.05-.18-.07-.25-.09-.48-.18-.71-.27-.43-.16-.86-.32-1.3-.5-.14-.05-.3-.11-.43-.16-.75-.3-1.5-.61-2.23-.96-.07-.02-.14-.05-.18-.07-1.34-.59-2.64-1.23-3.94-1.89-17.11-8.81-30.44-23.87-37.02-42.18-.32-.89-.61-1.8-.89-2.71-.16-.48-.32-.96-.46-1.43l-.34-1.23c-.05-.16-.09-.34-.14-.52-.2-.73-.41-1.48-.57-2.25-.05-.14-.07-.27-.09-.41-.05-.11-.07-.23-.09-.34-.3-1.34-.57-2.71-.8-4.1-.59-3.41-.93-6.92-1.05-10.47-.02-.75-.02-1.52-.02-2.28s0-1.52.02-2.28C37.02,37.34,59.59,9.24,90.33,0c-7.99,3.69-15.22,8.74-21.39,14.88-13.67,13.54-22.14,32.31-22.14,53.08,0,4.16.34,8.24,1,12.2,8.17,22.53,23.98,46.13,50.17,58.79,7.44,2.48,15.38,3.82,23.64,3.82,4.21,0,8.35-.34,12.38-1.02,4.85-.8,9.56-2.09,14.04-3.78Z"/>
      <path class="cls-4" d="M112.35,53.24c0-12.2,9.87-22.07,22.07-22.07s22.05,9.87,22.05,22.07-9.87,22.07-22.05,22.07-22.07-9.87-22.07-22.07Z"/>
      <path class="cls-4" d="M156.47,53.24c0,12.2-9.87,22.07-22.05,22.07s-22.07-9.87-22.07-22.07,9.87-22.07,22.07-22.07,22.05,9.87,22.05,22.07Z"/>
      <path class="cls-4" d="M82.98,147.12c.8-.48,1.55-.98,2.28-1.52-5.26,18.09-21.96,31.31-41.75,31.31-.75,0-1.5-.02-2.23-.05-.05-.02-.07-.02-.09,0C19,175.67,1.23,157.9.05,135.72c.02-.02.02-.05,0-.09-.02-.73-.05-1.48-.05-2.23s.02-1.5.05-2.23c.02-.05.02-.07,0-.09,1.18-22.18,18.95-39.95,41.14-41.14.02.02.05.02.09,0h.5s-.05,0-.07.05c-1.75,1.48-3.37,3.14-4.78,4.96-4.82,6.03-7.69,13.67-7.69,21.98,0,19.52,15.81,35.36,35.36,35.36,5.37,0,10.44-1.21,14.99-3.32,1.18-.57,2.3-1.16,3.39-1.84Z"/>
      <path class="cls-4" d="M87.01,133.4c0,.75-.02,1.5-.05,2.23-.05-.75-.11-1.5-.2-2.23.09-.73.16-1.48.2-2.23.02.73.05,1.48.05,2.23Z"/>
      <path class="cls-4" d="M87.01,133.4c0,.75-.02,1.5-.05,2.23-.05-.75-.11-1.5-.2-2.23.09-.73.16-1.48.2-2.23.02.73.05,1.48.05,2.23Z"/>
      <path class="cls-4" d="M156.47,53.24c0,12.2-9.87,22.07-22.05,22.07s-22.07-9.87-22.07-22.07,9.87-22.07,22.07-22.07,22.05,9.87,22.05,22.07Z"/>
      <circle class="cls-4" cx="71.58" cy="110.66" r="35.56"/>
      <path class="cls-4" d="M148.03,137.97c5.16-1.96,10.06-4.46,14.58-7.46-13.45,11.79-31.01,18.91-50.26,18.91-.75,0-1.52,0-2.28-.02-7.21-.23-14.17-1.43-20.75-3.53-.98-.3-1.93-.61-2.89-.96-.07-.02-.14-.05-.18-.07-.25-.09-.48-.18-.71-.27-.43-.16-.86-.32-1.3-.5-.14-.05-.3-.11-.43-.16-.75-.3-1.5-.61-2.23-.96-.07-.02-.14-.05-.18-.07-1.34-.59-2.64-1.23-3.94-1.89-17.11-8.81-30.44-23.87-37.02-42.18-.32-.89-.61-1.8-.89-2.71-.16-.48-.32-.96-.46-1.43l-.34-1.23c-.05-.16-.09-.34-.14-.52-.2-.73-.41-1.48-.57-2.25-.05-.14-.07-.27-.09-.41-.05-.11-.07-.23-.09-.34-.3-1.34-.57-2.71-.8-4.1-.59-3.41-.93-6.92-1.05-10.47-.02-.75-.02-1.52-.02-2.28s0-1.52.02-2.28C37.02,37.34,59.59,9.24,90.33,0c-7.99,3.69-15.22,8.74-21.39,14.88-13.67,13.54-22.14,32.31-22.14,53.08,0,4.16.34,8.24,1,12.2,8.17,22.53,23.98,46.13,50.17,58.79,7.44,2.48,15.38,3.82,23.64,3.82,4.21,0,8.35-.34,12.38-1.02,4.85-.8,9.56-2.09,14.04-3.78Z"/>
      <path class="cls-4" d="M112.35,53.24c0-12.2,9.87-22.07,22.07-22.07s22.05,9.87,22.05,22.07-9.87,22.07-22.05,22.07-22.07-9.87-22.07-22.07Z"/>
      <path class="cls-4" d="M156.47,53.24c0,12.2-9.87,22.07-22.05,22.07s-22.07-9.87-22.07-22.07,9.87-22.07,22.07-22.07,22.05,9.87,22.05,22.07Z"/>
      <path class="cls-4" d="M82.98,147.12c.8-.48,1.55-.98,2.28-1.52-5.26,18.09-21.96,31.31-41.75,31.31-.75,0-1.5-.02-2.23-.05-.05-.02-.07-.02-.09,0C19,175.67,1.23,157.9.05,135.72c.02-.02.02-.05,0-.09-.02-.73-.05-1.48-.05-2.23s.02-1.5.05-2.23c.02-.05.02-.07,0-.09,1.18-22.18,18.95-39.95,41.14-41.14.02.02.05.02.09,0h.5s-.05,0-.07.05c-1.75,1.48-3.37,3.14-4.78,4.96-4.82,6.03-7.69,13.67-7.69,21.98,0,19.52,15.81,35.36,35.36,35.36,5.37,0,10.44-1.21,14.99-3.32,1.18-.57,2.3-1.16,3.39-1.84Z"/>
      <path class="cls-4" d="M87.01,133.4c0,.75-.02,1.5-.05,2.23-.05-.75-.11-1.5-.2-2.23.09-.73.16-1.48.2-2.23.02.73.05,1.48.05,2.23Z"/>
      <path class="cls-4" d="M87.01,133.4c0,.75-.02,1.5-.05,2.23-.05-.75-.11-1.5-.2-2.23.09-.73.16-1.48.2-2.23.02.73.05,1.48.05,2.23Z"/>
      <path class="cls-4" d="M156.47,53.24c0,12.2-9.87,22.07-22.05,22.07s-22.07-9.87-22.07-22.07,9.87-22.07,22.07-22.07,22.05,9.87,22.05,22.07Z"/>
      <path class="cls-1" d="M15.52,166.71c7.01,5.9,15.91,9.63,25.67,10.15.02-.02.05-.02.09,0,.73.02,1.48.05,2.23.05,15.79,0,29.6-8.41,37.21-20.99-3.4,1.09-7.02,1.69-10.8,1.69-.9,0-1.79-.04-2.67-.11-.88.07-1.76.11-2.65.11-19.54,0-35.36-15.84-35.36-35.36,0-.88.05-1.76.11-2.62-.07-.89-.11-1.79-.11-2.7,0-7.21,2.17-13.92,5.89-19.51-16.61,5.52-28.79,20.75-29.76,38.98.02.02.02.05,0,.09-.02.73-.05,1.48-.05,2.23s.02,1.5.05,2.23c.02.05.02.07,0,.09.52,9.75,4.25,18.65,10.15,25.67Z"/>
      <path class="cls-1" d="M112.35,149.42c4.87,0,9.62-.46,14.23-1.33-.77,0-1.55-.02-2.32-.05-.88.03-1.77.05-2.66.05-8.26,0-16.2-1.34-23.64-3.82-1.01-.49-1.98-1.03-2.97-1.55,1.27-1.11,2.46-2.31,3.55-3.59-.19-.06-.39-.12-.59-.18-1.01-.49-1.98-1.03-2.97-1.55,6.81-5.97,11.32-14.5,12.03-24.08-1.3-17.52-15.28-31.49-32.79-32.79-7.55.56-14.44,3.46-19.95,8-.39-.99-.78-1.98-1.14-2.97-1.47.89-2.87,1.88-4.18,2.97-.4-1.02-.8-2.03-1.17-3.05-.66-3.96-1-8.03-1-12.2,0-.8.04-1.58.06-2.38-.04-.98-.06-1.96-.06-2.95,0-10.99,2.39-21.41,6.65-30.8-7.28,11.3-11.67,24.64-12.08,38.97-.02.75-.02,1.52-.02,2.28s0,1.52.02,2.28c.11,3.55.46,7.05,1.05,10.47.23,1.39.5,2.75.8,4.1.02.11.05.22.09.32-1.44.18-2.86.44-4.26.76-.38.87-.73,1.75-1.04,2.65.21-.24.43-.47.65-.71.04.18.09.35.13.51l.34,1.23c.08.29.18.58.28.87-1.51,3.22-2.55,6.7-3.04,10.36,1.32-4.01,3.32-7.72,5.91-10.95.54-.7,1.12-1.36,1.71-2.01.04.18.09.35.13.51l.34,1.23c.08.29.18.58.28.87-2.16,4.59-3.37,9.71-3.37,15.12,0,8.46,2.96,16.23,7.9,22.34,6.11,4.94,13.88,7.9,22.34,7.9,4.37,0,8.56-.79,12.43-2.24.08.03.16.06.24.09.43.18.86.34,1.3.5.23.09.46.18.71.27.05.02.11.05.18.07.96.34,1.91.66,2.89.96,6.58,2.09,13.54,3.3,20.75,3.53.75.02,1.52.02,2.28.02Z"/>
      <path class="cls-1" d="M74.24,151.43c3.4-.25,6.67-.97,9.74-2.12.48-1.22.91-2.46,1.28-3.72-.73.55-1.48,1.05-2.28,1.52-1.09.68-2.21,1.27-3.39,1.84-2.14,1-4.4,1.78-6.75,2.34.46.05.93.09,1.4.13Z"/>
      <path class="cls-1" d="M117.67,58.56c0,4.74,1.5,9.11,4.04,12.71,3.59,2.54,7.97,4.04,12.71,4.04,11.27,0,20.56-8.47,21.87-19.41-1.21-10.06-9.17-18.02-19.21-19.23-10.94,1.32-19.41,10.6-19.41,21.89Z"/>
    </g>
  </g>
</svg>